<?xml version="1.0" encoding="utf-8"?>
<!-- Generator: Adobe Illustrator 25.4.1, SVG Export Plug-In . SVG Version: 6.00 Build 0)  -->
<svg version="1.1" id="Layer_1" xmlns="http://www.w3.org/2000/svg" xmlns:xlink="http://www.w3.org/1999/xlink" x="0px" y="0px"
	 viewBox="0 0 24 24" style="enable-background:new 0 0 24 24;" xml:space="preserve">
<g>
	<path d="M14.8,4.5c1.4,0.2,2.8,0.7,4.1,1.3c2.2,3.3,3.3,7,2.9,11.2c-1.5,1.1-3.2,2-5,2.5c-0.4-0.5-0.8-1.1-1.1-1.7
		c0.6-0.2,1.2-0.5,1.7-0.8c-0.1-0.1-0.3-0.2-0.4-0.3c-1.6,0.7-3.3,1.1-5,1.1s-3.4-0.4-5-1.1c-0.1,0.1-0.3,0.2-0.4,0.3
		c0.5,0.3,1.1,0.6,1.7,0.8c-0.3,0.6-0.7,1.2-1.1,1.7c-1.8-0.5-3.5-1.4-5-2.5C1.9,13.3,2.6,9.6,5.1,5.8c1.3-0.6,2.7-1,4.1-1.3
		c0.2,0.3,0.4,0.7,0.5,1.1c0.7-0.1,1.5-0.2,2.3-0.2s1.5,0.1,2.3,0.2C14.4,5.2,14.6,4.9,14.8,4.5 M15.3,14.7c1,0,1.8-0.9,1.8-2
		c0-1.1-0.8-2-1.8-2c-1,0-1.8,0.9-1.8,2C13.5,13.8,14.3,14.7,15.3,14.7 M8.7,14.7c1,0,1.8-0.9,1.8-2c0-1.1-0.8-2-1.8-2
		c-1,0-1.8,0.9-1.8,2C6.9,13.8,7.7,14.7,8.7,14.7 M14.8,2.5c-0.7,0-1.3,0.3-1.7,0.9c-0.4,0-0.7,0-1.1,0s-0.7,0-1.1,0
		c-0.4-0.6-1-0.9-1.7-0.9c-0.1,0-0.2,0-0.3,0C7.3,2.8,5.8,3.3,4.3,3.9C4,4.1,3.7,4.3,3.5,4.6c-2.6,3.9-3.7,8-3.3,12.5
		c0.1,0.6,0.3,1.1,0.8,1.4c1.7,1.3,3.6,2.2,5.6,2.8c0.2,0.1,0.4,0.1,0.6,0.1c0.6,0,1.2-0.3,1.6-0.8c0.3-0.4,0.5-0.7,0.8-1.1
		c0.8,0.1,1.6,0.2,2.4,0.2c0.8,0,1.6-0.1,2.4-0.2c0.2,0.4,0.5,0.8,0.8,1.1c0.4,0.5,1,0.8,1.6,0.8c0.2,0,0.4,0,0.6-0.1
		c2-0.6,3.9-1.6,5.6-2.8c0.5-0.3,0.7-0.9,0.8-1.4c0.4-4.5-0.7-8.7-3.3-12.5c-0.2-0.3-0.5-0.5-0.8-0.7c-1.5-0.7-3-1.1-4.6-1.4
		C15,2.5,14.9,2.5,14.8,2.5L14.8,2.5z"/>
</g>
</svg>
